<svg width="167" height="71" viewBox="0 0 167 71" fill="none" xmlns="http://www.w3.org/2000/svg">
<g clip-path="url(#clip0_1_316)">
<path d="M15.527 47.7202C15.527 49.1121 15.7757 50.4049 16.27 51.6018C16.7642 52.7954 17.4384 53.8402 18.2927 54.7296C19.1436 55.6223 20.1615 56.3133 21.3463 56.8159C22.5311 57.3217 23.8109 57.5697 25.1888 57.5697C26.5667 57.5697 27.7614 57.3217 28.9462 56.8159C30.131 56.3166 31.1489 55.6223 32.0031 54.7296C32.8574 53.8435 33.5447 52.8119 34.0684 51.6448C34.592 50.4776 34.8539 49.2245 34.8539 47.8888C34.8539 46.553 34.592 45.29 34.0684 44.0964C33.5447 42.8995 32.8574 41.8581 32.0031 40.9654C31.1489 40.0793 30.131 39.3783 28.9462 38.8791C27.7614 38.3798 26.5111 38.1252 25.1888 38.1252C23.8665 38.1252 22.613 38.3765 21.4282 38.8791C20.2433 39.3783 19.2254 40.0759 18.3745 40.9654C17.517 41.8581 16.8329 42.8698 16.3092 44.0105C15.7856 45.1512 15.5237 46.3877 15.5237 47.7235M34.3597 0H49.3891V69.2476H34.3597V64.4898C31.1652 68.5533 26.8449 70.5834 21.3922 70.5834C18.3057 70.5834 15.4713 69.9982 12.8857 68.831C10.2968 67.6606 8.04171 66.0471 6.11393 63.9873C4.18615 61.9341 2.68713 59.5105 1.6136 56.7299C0.540063 53.9493 0.0032959 50.9471 0.0032959 47.7169C0.0032959 44.6585 0.510606 41.7523 1.53177 39.0014C2.54967 36.2505 3.99632 33.8435 5.86518 31.7837C7.73732 29.7238 9.98258 28.1004 12.5977 26.9002C15.2095 25.7067 18.0897 25.1082 21.2285 25.1082C26.5143 25.1082 30.8903 26.973 34.3597 30.6992V0Z" fill="black"/>
<path d="M73.6713 47.6409C73.6713 49.0858 73.9331 50.405 74.4568 51.6052C74.9772 52.7988 75.6678 53.8436 76.522 54.733C77.373 55.6257 78.3909 56.32 79.5757 56.8193C80.7605 57.3251 82.0141 57.5698 83.3363 57.5698C84.6586 57.5698 85.9089 57.3218 87.0937 56.8193C88.2753 56.32 89.2931 55.6257 90.1474 54.733C91.0016 53.8469 91.689 52.8021 92.2126 51.6052C92.7363 50.4083 92.9981 49.1155 92.9981 47.7236C92.9981 46.3316 92.7363 45.1248 92.2126 43.9312C91.689 42.7343 91.0016 41.6928 90.1474 40.8001C89.2931 39.914 88.2753 39.2131 87.0937 38.7138C85.9089 38.2146 84.6553 37.96 83.3363 37.96C82.0173 37.96 80.7605 38.2113 79.5757 38.7138C78.3909 39.2131 77.373 39.9107 76.522 40.8001C75.6678 41.6928 74.9804 42.7178 74.4568 43.8849C73.9331 45.0554 73.6713 46.3085 73.6713 47.6409ZM57.8955 47.4723C57.8955 44.3015 58.5272 41.3358 59.7939 38.5849C61.0605 35.834 62.8214 33.4403 65.0797 31.4102C67.3348 29.3834 70.0219 27.7831 73.1345 26.6127C76.2438 25.4456 79.6444 24.8604 83.3331 24.8604C87.0217 24.8604 90.3405 25.4323 93.4498 26.573C96.5591 27.7137 99.2561 29.2974 101.544 31.3308C103.828 33.3642 105.602 35.7811 106.872 38.5882C108.139 41.3986 108.771 44.4999 108.771 47.8889C108.771 51.2779 108.123 54.3858 106.83 57.1962C105.537 60.0033 103.76 62.4268 101.505 64.4536C99.2462 66.4837 96.5362 68.0575 93.368 69.1684C90.203 70.2793 86.773 70.8348 83.0843 70.8348C79.3957 70.8348 76.09 70.2826 73.0068 69.1684C69.9237 68.0542 67.2693 66.4704 65.0372 64.4106C62.805 62.3541 61.0572 59.8942 59.7906 57.0276C58.524 54.161 57.8923 50.977 57.8923 47.4723" fill="black"/>
<path d="M134.293 39.0443V69.2476H119.342V39.0443H114.39V26.4473H119.342V13.5989H134.293V26.4473H142.8V39.0443H134.293Z" fill="black"/>
<path d="M147.67 61.2396C147.67 59.9072 147.919 58.6409 148.416 57.444C148.91 56.2504 149.598 55.2056 150.481 54.3195C151.362 53.4268 152.393 52.7325 153.578 52.2332C154.762 51.7339 156.013 51.4827 157.335 51.4827C158.657 51.4827 159.911 51.7339 161.096 52.2332C162.28 52.7325 163.311 53.4268 164.192 54.3195C165.072 55.2056 165.763 56.2504 166.257 57.444C166.755 58.6409 167.003 59.9072 167.003 61.2396C167.003 62.5721 166.755 63.8384 166.257 65.0386C165.763 66.2355 165.072 67.277 164.192 68.1631C163.311 69.0558 162.28 69.7501 161.096 70.2527C159.911 70.7519 158.657 70.9999 157.335 70.9999C156.013 70.9999 154.762 70.7519 153.578 70.2527C152.393 69.7468 151.358 69.0558 150.481 68.1631C149.598 67.277 148.91 66.2355 148.416 65.0386C147.919 63.8417 147.67 62.5754 147.67 61.2396Z" fill="black"/>
</g>
<defs>
<clipPath id="clip0_1_316">
<rect width="167" height="71" fill="white"/>
</clipPath>
</defs>
</svg>
